# xmcd
#
# Track frame offsets:
#	150
#	16581
#	32189
#	51123
#	62044
#	79092
#	96767
#	115244
#	133827
#	155445
#	176982
#	195967
#	210956
#
# Disc length: 3250 seconds
#
# Revision: 0
# Processed by: cddbd v1.5.2PL0 Copyright (c) Steve Scherf et al.
# Submitted via: dBpowerAMP V4.0
#
DISCID=a50cb00d
DTITLE=idk - kurts stuff
DYEAR=1900
DGENRE=Acid
TTITLE0=1
TTITLE1=2
TTITLE2=3
TTITLE3=4
TTITLE4=5
TTITLE5=6
TTITLE6=7
TTITLE7=8
TTITLE8=9
TTITLE9=10
TTITLE10=11
TTITLE11=12
TTITLE12=13
EXTD=
EXTT0=
EXTT1=
EXTT2=
EXTT3=
EXTT4=
EXTT5=
EXTT6=
EXTT7=
EXTT8=
EXTT9=
EXTT10=
EXTT11=
EXTT12=
PLAYORDER=
